Coordinates
version=1
nRows=39
nColumns=18
inDegrees=yes

Units are S.I. units (second, meters, Newtons, ...)
If the header above contains a line with 'inDegrees', this indicates whether rotational values are in degrees (yes) or radians (no).

endheader
time	ground_thorax_rot_x	ground_thorax_rot_y	ground_thorax_rot_z	ground_thorax_tx	ground_thorax_ty	ground_thorax_tz	clav_prot	clav_elev	scapula_abduction	scapula_elevation	scapula_upward_rot	scapula_winging	plane_elv	shoulder_elv	axial_rot	elbow_flexion	pro_sup
      1.70000000	      3.50405609	      0.75541480	    -24.34393246	      0.05710781	     -0.00859026	      0.03141336	    -32.32801068	     -4.74321623	    -45.09933742	     -4.44875516	     11.64420575	     16.31039567	    -59.26279636	     37.76769796	     44.82513310	      0.00225791	    -90.00000000
      1.72000000	      3.38619013	      0.79593433	    -24.50821317	      0.05756154	     -0.00896466	      0.03085141	    -32.34187733	     -4.62957664	    -45.17385024	     -4.36438700	     11.63796526	     16.28077410	    -59.35690197	     37.98404532	     44.63845944	      0.00225791	    -90.00000000
      1.74000000	      3.29160993	      0.83960537	    -24.63056758	      0.05793365	     -0.00918977	      0.03026669	    -32.33418235	     -4.58382996	    -45.19606886	     -4.32278743	     11.61208054	     16.27814332	    -59.46169169	     38.26678239	     44.34982741	      0.00225791	    -90.00000000
      1.76000000	      3.18440244	      0.88857077	    -24.75450738	      0.05818394	     -0.00947345	      0.02972118	    -32.33425985	     -4.51312513	    -45.24482489	     -4.26219524	     11.58201783	     16.26915370	    -59.51254056	     38.45359886	     44.11815827	      0.00225791	    -90.00000000
      1.78000000	      3.10109713	      0.94197495	    -24.83606197	      0.05833854	     -0.00961398	      0.02917615	    -32.32117443	     -4.50665538	    -45.26029036	     -4.24091903	     11.52754257	     16.28573971	    -59.55919596	     38.68937297	     43.82726571	      0.00225791	    -90.00000000
      1.80000000	      2.99944151	      1.01060843	    -24.89965500	      0.05836969	     -0.00970448	      0.02866257	    -32.29549768	     -4.55695855	    -45.26583634	     -4.24501572	     11.41890223	     16.33442514	    -59.60117295	     38.91162120	     43.50040251	      0.00225791	    -90.00000000
      1.82000000	      2.92386768	      1.08793998	    -24.93758228	      0.05824505	     -0.00979232	      0.02821729	    -32.29524150	     -4.56019444	    -45.29857668	     -4.23223254	     11.36593862	     16.35061012	    -59.62705073	     39.03556623	     43.28498405	      0.00225791	    -90.00000000
      1.84000000	      2.89122684	      1.13474952	    -24.95030469	      0.05801652	     -0.00976854	      0.02781683	    -32.28270141	     -4.58828832	    -45.31406955	     -4.23053244	     11.29091072	     16.38162864	    -59.55218802	     39.14310289	     43.05870719	      0.00225791	    -90.00000000
      1.86000000	      2.86646647	      1.20995972	    -24.92414907	      0.05764539	     -0.00963937	      0.02744347	    -32.27146329	     -4.66268056	    -45.32501819	     -4.25767885	     11.19717332	     16.42934876	    -59.50847112	     39.23476758	     42.87062772	      0.00225791	    -90.00000000
      1.88000000	      2.84688264	      1.29057479	    -24.88156971	      0.05718288	     -0.00951962	      0.02712634	    -32.25698067	     -4.76770910	    -45.33075431	     -4.30147042	     11.08350777	     16.49117930	    -59.44864606	     39.29848252	     42.72225951	      0.00225791	    -90.00000000
      1.90000000	      2.83982546	      1.39670364	    -24.80051113	      0.05654860	     -0.00925368	      0.02684081	    -32.24983284	     -4.89537313	    -45.33488323	     -4.36485970	     10.97798096	     16.55524543	    -59.42452812	     39.29384517	     42.63606712	      0.00225791	    -90.00000000
      1.92000000	      2.74271419	      1.52053639	    -24.76699505	      0.05593548	     -0.00892251	      0.02650902	    -32.21449881	     -5.27394016	    -45.29921584	     -4.56267988	     10.70220019	     16.73851298	    -59.47525259	     39.32588241	     42.98992834	      0.00225791	    -90.00000000
      1.94000000	      2.80771794	      1.60784388	    -24.61025607	      0.05503012	     -0.00858148	      0.02638117	    -32.20733262	     -5.34035729	    -45.28910892	     -4.59845731	     10.65757321	     16.77018975	    -59.35824592	     39.18845159	     42.83701557	      0.00225791	    -90.00000000
      1.96000000	      2.89843736	      1.71898438	    -24.43572196	      0.05405232	     -0.00812633	      0.02627532	    -32.20657154	     -5.48432450	    -45.26233697	     -4.69074649	     10.60852724	     16.82267012	    -59.29713451	     39.04110748	     42.89492756	      0.00225791	    -90.00000000
      1.98000000	      2.94298445	      1.82476951	    -24.30956802	      0.05309789	     -0.00768911	      0.02622911	    -32.20646881	     -5.76499515	    -45.19618280	     -4.87886122	     10.54050315	     16.91860478	    -59.39534026	     38.79910943	     43.93877933	      0.00225791	    -90.00000000
      2.00000000	      3.06584436	      1.94973020	    -24.06008093	      0.05183294	     -0.00717193	      0.02617971	    -32.19133356	     -5.87686770	    -45.14497890	     -4.95227058	     10.51125846	     16.95998833	    -59.25242873	     38.53803328	     43.79225347	      0.00225791	    -90.00000000
      2.02000000	      3.22306263	      2.04976674	    -23.84594099	      0.05062552	     -0.00663000	      0.02629761	    -32.20585788	     -6.05649701	    -45.03940207	     -5.11321039	     10.60658067	     16.98158507	    -59.37232498	     38.13782323	     45.11243766	      0.00225791	    -90.00000000
      2.04000000	      3.38831435	      2.12803240	    -23.61260700	      0.04929088	     -0.00598417	      0.02642111	    -32.19344513	     -6.28729604	    -44.89368020	     -5.29881834	     10.66201848	     17.03464111	    -59.32158753	     37.76473962	     45.48080210	      0.00225791	    -90.00000000
      2.06000000	      3.53835066	      2.24951323	    -23.32732105	      0.04783972	     -0.00540411	      0.02652927	    -32.18101832	     -6.48606148	    -44.74246692	     -5.46878552	     10.74604259	     17.07198182	    -59.39823329	     37.30224984	     46.68628231	      0.00225791	    -90.00000000
      2.08000000	      3.70255217	      2.40719281	    -22.97664449	      0.04614439	     -0.00471476	      0.02661450	    -32.14922188	     -6.67556083	    -44.61804449	     -5.60559054	     10.74211265	     17.13526205	    -59.20103457	     36.89492759	     46.57548048	      0.00225791	    -90.00000000
      2.10000000	      3.91333882	      2.45452808	    -22.69190161	      0.04458553	     -0.00402338	      0.02688812	    -32.15591044	     -6.89715526	    -44.36619713	     -5.84892701	     11.02215046	     17.12509291	    -59.39612869	     36.25665208	     48.66819033	      0.00225791	    -90.00000000
      2.12000000	      4.06140942	      2.61032238	    -22.29125562	      0.04267880	     -0.00328288	      0.02701774	    -32.10812371	     -7.12575490	    -44.18556269	     -6.01997123	     11.04137973	     17.19945456	    -59.18018828	     35.78422773	     48.58615002	      0.00225791	    -90.00000000
      2.14000000	      4.17569670	      2.60717735	    -21.97481160	      0.04096228	     -0.00262251	      0.02726329	    -32.04479962	     -7.42294382	    -43.80124079	     -6.30647278	     11.29583856	     17.23638661	    -59.40636623	     35.08583471	     50.77060337	      0.00225791	    -90.00000000
      2.16000000	      4.36881896	      2.79898102	    -21.54188204	      0.03881432	     -0.00176446	      0.02736765	    -32.00984259	     -7.67689611	    -43.57917817	     -6.52113417	     11.40115265	     17.29689748	    -59.19940543	     34.55711566	     50.82129110	      0.00225791	    -90.00000000
      2.18000000	      4.48274699	      2.83849693	    -21.14833502	      0.03673630	     -0.00099234	      0.02757705	    -31.95408632	     -7.95819984	    -43.20515689	     -6.79906593	     11.66906572	     17.32965798	    -59.21721184	     33.84843427	     51.91611043	      0.00225791	    -90.00000000
      2.20000000	      4.59572488	      2.89596302	    -20.68820690	      0.03451848	     -0.00007869	      0.02778674	    -31.88527346	     -8.29443874	    -42.85014269	     -7.09091744	     11.84435783	     17.41086509	    -59.11605882	     33.22188664	     52.91747931	      0.00225791	    -90.00000000
      2.22000000	      4.79051829	      2.94684454	    -20.24761300	      0.03228156	      0.00060686	      0.02814224	    -31.87143749	     -8.45837816	    -42.48992790	     -7.32614872	     12.26590199	     17.36040299	    -59.26283354	     32.35746684	     55.46887184	      0.00225791	    -90.00000000
      2.24000000	      4.86080041	      3.10398921	    -19.70454545	      0.02966775	      0.00149677	      0.02824445	    -31.80391807	     -8.73381957	    -42.20179514	     -7.55485698	     12.37677596	     17.44188610	    -58.91945623	     31.71111921	     55.42285863	      0.00225791	    -90.00000000
      2.26000000	      4.93478284	      3.07428704	    -19.25146573	      0.02730708	      0.00234280	      0.02849632	    -31.70802289	     -9.09465975	    -41.69378182	     -7.90164908	     12.69977497	     17.50708325	    -58.97655996	     30.92940012	     57.32057389	      0.00225791	    -90.00000000
      2.28000000	      5.00146493	      3.17339764	    -18.62606081	      0.02449546	      0.00328919	      0.02872562	    -31.63075786	     -9.35043097	    -41.44927331	     -8.09366949	     12.73179164	     17.60792864	    -58.25427394	     30.30947311	     56.83920338	      0.00225791	    -90.00000000
      2.30000000	      5.00830379	      3.29057726	    -18.03667631	      0.02165733	      0.00416185	      0.02888970	    -31.57185134	     -9.63531197	    -41.15839867	     -8.33616569	     12.86743408	     17.69292861	    -57.77458253	     29.58253502	     56.75116863	      0.00225791	    -90.00000000
      2.32000000	      5.05296611	      3.26735597	    -17.63493987	      0.01921725	      0.00495134	      0.02909267	    -31.48507774	    -10.06417497	    -40.58009812	     -8.75784208	     13.28654673	     17.77126316	    -57.95390718	     28.70107166	     59.03133796	      0.00225791	    -90.00000000
      2.34000000	      5.11037541	      3.34088809	    -17.06049680	      0.01639196	      0.00575815	      0.02937245	    -31.43218030	    -10.30944127	    -40.25762814	     -8.99269812	     13.50529156	     17.82473075	    -57.41665956	     27.90846361	     59.31856194	      0.00225791	    -90.00000000
      2.36000000	      5.16365825	      3.44159335	    -16.41482424	      0.01344854	      0.00661085	      0.02960966	    -31.32871554	    -10.56030958	    -39.98390510	     -9.17426027	     13.51865429	     17.94035135	    -56.42346380	     27.27641399	     58.55650854	      0.00225791	    -90.00000000
      2.38000000	      5.12424601	      3.50179826	    -15.96334292	      0.01081799	      0.00733787	      0.02983475	    -31.28869860	    -10.99104931	    -39.62747984	     -9.54516922	     13.73245404	     18.07822340	    -55.96539578	     26.44130796	     58.95203991	      0.00225791	    -90.00000000
      2.40000000	      5.13668006	      3.61287796	    -15.41017325	      0.00804211	      0.00804608	      0.03009613	    -31.22847683	    -11.30180010	    -39.36458188	     -9.79199627	     13.81525949	     18.20261701	    -55.05649538	     25.71518377	     58.53957357	      0.00225791	    -90.00000000
      2.42000000	      5.19056232	      3.73028933	    -14.77311098	      0.00520482	      0.00877125	      0.03036453	    -31.11088183	    -11.54214837	    -39.07109659	     -9.96515562	     13.82881290	     18.32114710	    -53.89234900	     25.11250585	     57.63237874	      0.00225791	    -90.00000000
      2.44000000	      5.16423819	      3.83948602	    -14.34183377	      0.00265351	      0.00926360	      0.03066767	    -31.08848487	    -11.89748293	    -38.86333630	    -10.24705564	     13.90952248	     18.46693446	    -52.74513929	     24.32828440	     56.78535619	      0.00225791	    -90.00000000
      2.46000000	      5.23091541	      4.00025989	    -13.73576517	     -0.00001140	      0.00990208	      0.03093983	    -30.96520251	    -12.14036060	    -38.55314951	    -10.42447008	     13.93299275	     18.58818040	    -51.51685996	     23.77531620	     55.85400897	      0.00225791	    -90.00000000
